<svg width="1457" height="443" viewBox="0 0 1457 443" fill="none" xmlns="http://www.w3.org/2000/svg">
<path d="M430 221.5C430 194.119 424.607 167.007 414.129 141.711C403.651 116.414 388.293 93.4292 368.932 74.0682C349.571 54.7072 326.586 39.3492 301.289 28.8711C275.993 18.393 248.881 13 221.5 13C194.119 13 167.007 18.393 141.71 28.8711C116.414 39.3492 93.4292 54.7072 74.0682 74.0682C54.7072 93.4293 39.3492 116.414 28.8711 141.711C18.393 167.007 13 194.119 13 221.5L221.5 221.5H430Z" fill="#D82727" stroke="black" stroke-width="25"/>
<path d="M13 221.5C13 276.798 34.9669 329.83 74.0682 368.932C113.17 408.033 166.202 430 221.5 430C276.798 430 329.83 408.033 368.932 368.932C408.033 329.83 430 276.798 430 221.5L221.5 221.5L13 221.5Z" fill="white" stroke="black" stroke-width="25"/>
<circle cx="221.5" cy="221.5" r="76.2425" fill="white" stroke="black" stroke-width="25"/>
<circle cx="221.5" cy="221.5" r="28.0075" fill="white" stroke="#989898" stroke-width="9"/>
<path fill-rule="evenodd" clip-rule="evenodd" d="M170.443 28.5597C85.9397 51.9174 23.8918 129.36 23.8918 221.294C23.8918 314.503 87.6729 392.816 173.972 414.969C112.427 372.267 72.1267 301.098 72.1267 220.516C72.1267 141.485 110.891 71.5072 170.443 28.5597Z" fill="#424040" fill-opacity="0.2"/>
<path d="M595.979 202.525C595.979 211.976 593.816 220.651 589.49 228.553C585.165 236.299 578.522 242.573 569.561 247.376C560.601 252.178 549.477 254.58 536.191 254.58H511.627V313.141H472V150.006H536.191C549.168 150.006 560.137 152.253 569.098 156.745C578.058 161.238 584.778 167.435 589.259 175.336C593.739 183.237 595.979 192.3 595.979 202.525ZM533.178 222.975C540.749 222.975 546.387 221.194 550.095 217.63C553.803 214.067 555.657 209.032 555.657 202.525C555.657 196.019 553.803 190.984 550.095 187.42C546.387 183.857 540.749 182.075 533.178 182.075H511.627V222.975H533.178Z" fill="black"/>
<path d="M675.47 315C662.802 315 651.37 312.289 641.173 306.866C631.131 301.444 623.175 293.698 617.304 283.628C611.588 273.558 608.73 261.784 608.73 248.305C608.73 234.982 611.665 223.285 617.536 213.215C623.407 202.99 631.44 195.166 641.637 189.744C651.833 184.322 663.265 181.611 675.934 181.611C688.602 181.611 700.034 184.322 710.231 189.744C720.427 195.166 728.461 202.99 734.331 213.215C740.202 223.285 743.137 234.982 743.137 248.305C743.137 261.629 740.125 273.403 734.1 283.628C728.229 293.698 720.118 301.444 709.767 306.866C699.571 312.289 688.138 315 675.47 315ZM675.47 280.607C683.04 280.607 689.452 277.818 694.704 272.241C700.111 266.664 702.815 258.685 702.815 248.305C702.815 237.925 700.189 229.947 694.936 224.37C689.838 218.792 683.504 216.004 675.934 216.004C668.209 216.004 661.798 218.792 656.7 224.37C651.601 229.792 649.052 237.771 649.052 248.305C649.052 258.685 651.524 266.664 656.468 272.241C661.566 277.818 667.9 280.607 675.47 280.607Z" fill="black"/>
<path d="M843.182 313.141L803.787 258.763V313.141H764.16V141.176H803.787V236.221L842.951 183.47H891.847L838.084 248.538L892.31 313.141H843.182Z" fill="black"/>
<path d="M927.341 169.991C920.389 169.991 914.672 167.977 910.192 163.949C905.866 159.766 903.704 154.654 903.704 148.612C903.704 142.415 905.866 137.302 910.192 133.274C914.672 129.091 920.389 127 927.341 127C934.138 127 939.7 129.091 944.026 133.274C948.506 137.302 950.746 142.415 950.746 148.612C950.746 154.654 948.506 159.766 944.026 163.949C939.7 167.977 934.138 169.991 927.341 169.991ZM947.038 183.47V313.141H907.411V183.47H947.038Z" fill="black"/>
<path d="M1085.81 150.006C1102.96 150.006 1117.94 153.415 1130.77 160.231C1143.59 167.048 1153.48 176.653 1160.43 189.047C1167.54 201.286 1171.09 215.461 1171.09 231.574C1171.09 247.531 1167.54 261.706 1160.43 274.1C1153.48 286.494 1143.51 296.099 1130.54 302.916C1117.71 309.733 1102.8 313.141 1085.81 313.141H1024.86V150.006H1085.81ZM1083.26 278.748C1098.25 278.748 1109.91 274.642 1118.25 266.431C1126.6 258.22 1130.77 246.601 1130.77 231.574C1130.77 216.546 1126.6 204.849 1118.25 196.483C1109.91 188.117 1098.25 183.934 1083.26 183.934H1064.49V278.748H1083.26Z" fill="black"/>
<path d="M1315.13 246.214C1315.13 249.932 1314.9 253.805 1314.43 257.833H1224.75C1225.37 265.889 1227.92 272.086 1232.4 276.424C1237.03 280.607 1242.67 282.698 1249.32 282.698C1259.2 282.698 1266.08 278.515 1269.94 270.15H1312.12C1309.95 278.67 1306.01 286.339 1300.3 293.156C1294.74 299.972 1287.71 305.317 1279.21 309.19C1270.71 313.063 1261.21 315 1250.71 315C1238.04 315 1226.76 312.289 1216.87 306.866C1206.98 301.444 1199.26 293.698 1193.7 283.628C1188.14 273.558 1185.36 261.784 1185.36 248.305C1185.36 234.827 1188.06 223.053 1193.47 212.983C1199.03 202.913 1206.75 195.166 1216.64 189.744C1226.53 184.322 1237.88 181.611 1250.71 181.611C1263.22 181.611 1274.34 184.244 1284.08 189.512C1293.81 194.779 1301.38 202.293 1306.79 212.053C1312.35 221.813 1315.13 233.2 1315.13 246.214ZM1274.57 235.756C1274.57 228.94 1272.26 223.518 1267.62 219.489C1262.99 215.461 1257.19 213.447 1250.24 213.447C1243.6 213.447 1237.96 215.384 1233.33 219.257C1228.85 223.13 1226.06 228.63 1224.98 235.756H1274.57Z" fill="black"/>
<path d="M1412.51 313.141L1387.71 277.121L1366.85 313.141H1323.98L1366.62 246.911L1322.82 183.47H1367.32L1392.11 219.257L1412.97 183.47H1455.84L1412.51 248.77L1457 313.141H1412.51Z" fill="black"/>
</svg>
